<svg width="151" height="44" viewBox="0 0 151 44" fill="none" xmlns="http://www.w3.org/2000/svg">
<path d="M72.5724 19.05C72.0098 19.2601 71.3769 19.4001 70.744 19.5402C70.1111 19.6803 69.4782 19.6803 68.8453 19.6803C68.2124 19.6803 67.6498 19.6102 67.0873 19.4702C66.5247 19.3301 66.0324 19.12 65.6105 18.9099C64.6963 18.3496 63.9931 17.6493 63.4305 16.6688C62.9383 15.7583 62.657 14.7078 62.657 13.5872C62.657 12.6768 62.7976 11.8363 63.1492 11.0659C63.4305 10.2956 63.9228 9.66524 64.4853 9.10495C65.0479 8.54467 65.6808 8.1945 66.4544 7.91436C67.2279 7.63422 68.0014 7.49414 68.9156 7.49414C69.4782 7.49414 70.1111 7.56418 70.6737 7.63422C71.2362 7.70425 71.8691 7.91436 72.502 8.12446V11.0659H71.3066L70.955 9.17499L70.744 8.89485C70.533 8.82481 70.2517 8.75478 70.0408 8.68475C69.8298 8.61471 69.5485 8.61471 69.3376 8.61471C68.1421 8.61471 67.1576 9.03492 66.4544 9.94537C65.7511 10.8558 65.3995 12.0464 65.3995 13.5872C65.3995 15.128 65.7511 16.3886 66.5247 17.229C67.2982 18.1395 68.2827 18.5597 69.6188 18.5597C69.7595 18.5597 69.9001 18.5597 70.1111 18.4897C70.3221 18.4897 70.4627 18.4196 70.6737 18.3496L70.955 18.0695L71.3769 15.9684H72.6427V19.05H72.5724Z" fill="black"/>
<path d="M82.0654 17.2989V18.6296C81.4325 18.9798 80.8699 19.2599 80.237 19.4C79.6041 19.54 79.0416 19.6801 78.4087 19.6801C77.0726 19.6801 76.0177 19.2599 75.2442 18.4895C74.4706 17.7191 74.0487 16.5986 74.0487 15.2679C74.0487 13.9372 74.4706 12.8867 75.2442 12.0463C76.088 11.2058 77.0726 10.7856 78.4087 10.7856C79.5338 10.7856 80.448 11.1358 81.0809 11.8362C81.7138 12.5365 82.0654 13.517 82.0654 14.7777V15.1278H76.299V15.1979C76.299 16.1783 76.5803 16.9487 77.0726 17.5791C77.5648 18.1393 78.268 18.4195 79.1822 18.4195C79.6745 18.4195 80.0964 18.3494 80.5887 18.2094C81.0106 17.8592 81.5028 17.5791 82.0654 17.2989ZM79.7448 14.0773V13.8672C79.7448 13.1668 79.6041 12.6066 79.3228 12.2564C79.0416 11.9062 78.6899 11.6961 78.1977 11.6961C77.6351 11.6961 77.2132 11.9062 76.9319 12.3264C76.6506 12.7466 76.4397 13.3069 76.3693 14.0773H79.7448Z" fill="black"/>
<path d="M87.1993 10.9258V11.346L89.1683 16.8087L91.1373 11.346V10.9258H95.0753V11.6962L94.1611 11.7662L93.8799 12.0463V18.3495L94.1611 18.6297L95.0753 18.6997V19.4701H90.645V18.6997L91.5592 18.6297L91.8405 18.3495V12.1864L89.1683 19.4701H88.3244L85.5819 12.1864V18.3495L85.7928 18.6297L86.707 18.6997V19.4701H83.1909V18.6997L84.1051 18.6297L84.3864 18.3495V12.0463L84.1051 11.7662L83.1909 11.6962V10.9258H87.1993Z" fill="black"/>
<path d="M104.428 17.2989V18.6296C103.795 18.9798 103.232 19.2599 102.6 19.4C101.967 19.54 101.404 19.6801 100.771 19.6801C99.4351 19.6801 98.3803 19.2599 97.6067 18.4895C96.8332 17.7191 96.4113 16.5986 96.4113 15.2679C96.4113 13.9372 96.8332 12.8867 97.6067 12.0463C98.4506 11.2058 99.4351 10.7856 100.771 10.7856C101.896 10.7856 102.811 11.1358 103.443 11.8362C104.076 12.5365 104.428 13.517 104.428 14.7777V15.1278H98.6615V15.1979C98.6615 16.1783 98.9428 16.9487 99.4351 17.5791C99.9273 18.1393 100.631 18.4195 101.545 18.4195C102.037 18.4195 102.459 18.3494 102.951 18.2094C103.443 17.8592 103.936 17.5791 104.428 17.2989ZM102.107 14.0773V13.8672C102.107 13.1668 101.967 12.6066 101.685 12.2564C101.404 11.9062 101.052 11.6961 100.56 11.6961C99.9977 11.6961 99.5757 11.9062 99.2944 12.3264C99.0131 12.7466 98.8022 13.3069 98.7319 14.0773H102.107Z" fill="black"/>
<path d="M105.694 18.6995L106.608 18.6295L106.889 18.3493V12.0462L106.608 11.766L105.694 11.696V10.9256H110.194V11.696L109.28 11.766L108.999 12.0462V16.3884L112.585 12.4664V12.0462L112.374 11.766L111.46 11.696V10.9256H115.961V11.696L115.047 11.766L114.765 12.0462V18.3493L115.047 18.6295L115.961 18.6995V19.4699H111.46V18.6995L112.374 18.6295L112.585 18.3493V13.8671L108.999 17.7891V18.3493L109.28 18.6295L110.194 18.6995V19.4699H105.694V18.6995ZM109.491 8.5444C109.772 8.68447 110.054 8.75451 110.194 8.82454C110.335 8.89458 110.616 8.89457 110.757 8.89457C110.968 8.89457 111.179 8.89458 111.39 8.82454C111.601 8.75451 111.812 8.68447 112.093 8.5444V7.28377C112.163 7.1437 112.304 7.07366 112.445 7.00362C112.585 6.93359 112.726 6.93359 113.007 6.93359C113.288 6.93359 113.57 7.00362 113.781 7.14369C113.992 7.28376 114.062 7.49387 114.062 7.84404C114.062 8.40433 113.781 8.82454 113.218 9.17472C112.656 9.5249 111.882 9.66496 110.827 9.66496C109.843 9.66496 108.999 9.5249 108.436 9.17472C107.874 8.82454 107.592 8.40433 107.592 7.84404C107.592 7.5639 107.663 7.28376 107.874 7.14369C108.085 7.00362 108.296 6.93359 108.647 6.93359C108.858 6.93359 109.069 6.93359 109.21 7.00362C109.35 7.07366 109.491 7.1437 109.561 7.28377V8.5444H109.491Z" fill="black"/>
<path d="M117.086 18.6997L118.001 18.6297L118.282 18.3495V12.0463L118.001 11.7662L117.086 11.6962V10.9258H121.587V11.6962L120.673 11.7662L120.392 12.0463V14.4976H123.697V12.0463L123.415 11.7662L122.501 11.6962V10.9258H127.002V11.6962L126.088 11.7662L125.806 12.0463V18.3495L126.088 18.6297L127.002 18.6997V19.4701H122.642V18.6997L123.556 18.6297L123.837 18.3495V15.4781H120.532V18.3495L120.813 18.6297L121.728 18.6997V19.4701H117.227V18.6997H117.086Z" fill="black"/>
<path d="M128.267 18.6997L129.182 18.6297L129.463 18.3495V12.0463L129.182 11.7662L128.267 11.6962V10.9258H132.909V11.6962L131.854 11.7662L131.572 12.0463V14.3575C131.783 14.3575 131.994 14.2875 132.205 14.2875C132.416 14.2875 132.627 14.2875 132.838 14.2875C133.049 14.2875 133.19 14.2875 133.401 14.2875C133.612 14.2875 133.823 14.2875 134.034 14.3575C134.245 14.3575 134.456 14.4275 134.667 14.4976C134.878 14.5676 135.089 14.6376 135.229 14.7077C135.44 14.7777 135.581 14.9178 135.721 15.0579C135.862 15.1979 136.003 15.338 136.143 15.5481C136.284 15.7582 136.354 15.8983 136.425 16.1784C136.495 16.3885 136.495 16.6687 136.495 16.9488C136.495 17.5091 136.425 17.9293 136.214 18.2795C136.003 18.6297 135.721 18.8398 135.44 19.0499C135.089 19.26 134.737 19.33 134.385 19.4C133.963 19.4701 133.612 19.4701 133.26 19.4701H128.338V18.6997H128.267ZM131.643 18.4195C131.924 18.4896 132.205 18.4896 132.557 18.4896C132.838 18.4896 133.049 18.4195 133.26 18.3495C133.471 18.2795 133.682 18.1394 133.823 17.9993C133.963 17.8593 134.104 17.6492 134.174 17.5091C134.245 17.369 134.315 17.0889 134.315 16.8087C134.315 16.5986 134.315 16.3885 134.245 16.2485C134.174 16.0383 134.104 15.8983 133.963 15.7582C133.823 15.6181 133.682 15.4781 133.471 15.408C133.26 15.338 132.979 15.268 132.698 15.268C132.487 15.268 132.346 15.268 132.135 15.338C131.994 15.338 131.854 15.408 131.783 15.408V18.4195H131.643ZM136.847 18.6997L137.761 18.6297L138.042 18.3495V12.0463L137.761 11.7662L136.847 11.6962V10.9258H141.347V11.6962L140.433 11.7662L140.152 12.0463V18.3495L140.433 18.6297L141.347 18.6997V19.4701H136.847V18.6997Z" fill="black"/>
<path d="M150.7 17.2989V18.6296C150.067 18.9798 149.505 19.2599 148.872 19.4C148.239 19.54 147.676 19.6801 147.043 19.6801C145.707 19.6801 144.652 19.2599 143.879 18.4895C143.105 17.7191 142.683 16.5986 142.683 15.2679C142.683 13.9372 143.105 12.8867 143.879 12.0463C144.723 11.2058 145.707 10.7856 147.043 10.7856C148.168 10.7856 149.083 11.1358 149.716 11.8362C150.348 12.5365 150.7 13.517 150.7 14.7777V15.1278H144.934V15.1979C144.934 16.1783 145.215 16.9487 145.707 17.5791C146.199 18.1393 146.903 18.4195 147.817 18.4195C148.309 18.4195 148.731 18.3494 149.223 18.2094C149.645 17.8592 150.137 17.5791 150.7 17.2989ZM148.379 14.0773V13.8672C148.379 13.1668 148.239 12.6066 147.957 12.2564C147.676 11.9062 147.325 11.6961 146.832 11.6961C146.27 11.6961 145.848 11.9062 145.567 12.3264C145.285 12.7466 145.074 13.3069 145.004 14.0773H148.379Z" fill="black"/>
<path d="M73.4866 25.0728V25.9132L72.5021 25.9832L72.2208 26.2634V35.578L72.5021 35.8582L73.4866 35.9282V36.7686H68.564V35.9282L69.6189 35.8582L69.9001 35.578V26.1233H67.5092C67.3686 29.6951 66.8763 32.4265 66.1028 34.2474C65.3292 36.0683 64.2744 37.0488 63.0086 37.0488C62.5867 37.0488 62.2351 36.9087 61.9538 36.6986C61.6725 36.4885 61.6022 36.1383 61.6022 35.7881C61.6022 35.438 61.6725 35.1578 61.8835 34.9477C62.0241 34.6676 62.3054 34.5275 62.657 34.4575L64.0634 35.508C64.2041 35.3679 64.3447 35.1578 64.415 34.9477C64.5557 34.7376 64.6963 34.4575 64.837 34.1073C64.9776 33.7571 65.1183 33.3369 65.2589 32.8467C65.3995 32.3564 65.5402 31.7261 65.6808 31.0257C65.7512 30.6055 65.8215 30.1853 65.8918 29.8351C65.9621 29.4149 65.9621 29.0648 66.0324 28.6446C66.1028 28.2243 66.1028 27.8742 66.1028 27.524C66.1028 27.1738 66.1731 26.8236 66.1731 26.5435L65.8918 26.2634L64.415 26.1933V25.0728H73.4866Z" fill="black"/>
<path d="M82.9099 34.6671V35.9978C82.277 36.3479 81.7144 36.6281 81.0815 36.7682C80.4486 36.9082 79.886 37.0483 79.2531 37.0483C77.917 37.0483 76.8622 36.6281 76.0886 35.8577C75.3151 35.0873 74.8932 33.9667 74.8932 32.6361C74.8932 31.3054 75.3151 30.2549 76.0886 29.4145C76.9325 28.574 77.917 28.1538 79.2531 28.1538C80.3783 28.1538 81.2925 28.504 81.9254 29.2043C82.5583 29.9047 82.9099 30.8852 82.9099 32.1458V32.496H77.1435V32.566C77.1435 33.5465 77.4248 34.3169 77.917 34.9472C78.4093 35.5075 79.1125 35.7876 80.0267 35.7876C80.5189 35.7876 80.9409 35.7176 81.4331 35.5775C81.855 35.2274 82.3473 35.0173 82.9099 34.6671ZM80.5893 31.4455V31.2354C80.5893 30.535 80.4486 29.9747 80.1673 29.6246C79.886 29.2744 79.5344 29.0643 79.0422 29.0643C78.4796 29.0643 78.0577 29.2744 77.7764 29.6946C77.4951 30.1148 77.2841 30.6751 77.2138 31.4455H80.5893Z" fill="black"/>
<path d="M84.1057 36.0683L85.0199 35.9983L85.3012 35.7182V29.415L85.0199 29.1348L84.0354 29.0648V28.2944H91.3489V31.3059H90.1534L89.8721 29.5551L89.6611 29.2749H87.4812V35.7182L87.7625 35.9983L89.0283 36.0683V36.8387H84.176V36.0683H84.1057Z" fill="black"/>
<path d="M100.42 34.6671V35.9978C99.787 36.3479 99.2244 36.6281 98.5915 36.7682C97.9586 36.9082 97.3961 37.0483 96.7632 37.0483C95.427 37.0483 94.3722 36.6281 93.5987 35.8577C92.8251 35.0873 92.4032 33.9667 92.4032 32.6361C92.4032 31.3054 92.8251 30.2549 93.5987 29.4145C94.4425 28.574 95.427 28.1538 96.7632 28.1538C97.8883 28.1538 98.8025 28.504 99.4354 29.2043C100.068 29.9047 100.42 30.8852 100.42 32.1458V32.496H94.6535V32.566C94.6535 33.5465 94.9348 34.3169 95.427 34.9472C95.9193 35.5075 96.6225 35.7876 97.5367 35.7876C98.0289 35.7876 98.4509 35.7176 98.9431 35.5775C99.3651 35.2274 99.8573 35.0173 100.42 34.6671ZM98.0993 31.4455V31.2354C98.0993 30.535 97.9586 29.9747 97.6773 29.6246C97.396 29.2744 97.0444 29.0643 96.5522 29.0643C95.9896 29.0643 95.5677 29.2744 95.2864 29.6946C95.0051 30.1148 94.7941 30.6751 94.7238 31.4455H98.0993Z" fill="black"/>
<path d="M101.615 36.0683L102.53 35.9983L102.811 35.7182V29.415L102.53 29.1348L101.615 29.0648V28.2944H106.116V29.0648L105.202 29.1348L104.92 29.415V31.8662H108.226V29.415L107.944 29.1348L107.03 29.0648V28.2944H111.531V29.0648L110.617 29.1348L110.335 29.415V35.7182L110.617 35.9983L111.531 36.0683V36.8387H107.171V36.0683L108.085 35.9983L108.366 35.7182V32.8467H105.061V35.7182L105.342 35.9983L106.257 36.0683V36.8387H101.756V36.0683H101.615Z" fill="black"/>
<path d="M121.446 28.2944V29.0648L120.532 29.1348L120.321 29.415V35.6481L120.532 35.7882H121.587V39.36H120.391L120.04 37.1189L119.758 36.8387H114.062L113.781 37.1189L113.429 39.36H112.234V35.7882H113.078C113.359 35.368 113.64 34.8778 113.851 34.3175C114.133 33.7572 114.344 33.2669 114.555 32.7066C114.766 32.1464 114.977 31.5861 115.117 31.0258C115.258 30.4655 115.398 29.9052 115.469 29.415L115.188 29.1348L114.062 29.0648V28.2944H121.446ZM118.141 35.8582V29.2749H116.664C116.594 29.7652 116.453 30.3254 116.313 30.8857C116.172 31.446 116.031 32.0763 115.82 32.6366C115.609 33.1969 115.398 33.7572 115.188 34.3175C114.977 34.8778 114.695 35.368 114.414 35.7882H118.141V35.8582Z" fill="black"/>
<path d="M122.642 36.0683L123.556 35.9983L123.837 35.7182V29.415L123.556 29.1348L122.642 29.0648V28.2944H127.283V29.0648L126.228 29.1348L125.947 29.415V31.7262C126.158 31.7262 126.369 31.6561 126.58 31.6561C126.791 31.6561 127.002 31.6561 127.213 31.6561C127.424 31.6561 127.564 31.6561 127.775 31.6561C127.986 31.6561 128.197 31.6561 128.408 31.7262C128.619 31.7262 128.83 31.7962 129.041 31.8662C129.252 31.9363 129.463 32.0063 129.604 32.0763C129.815 32.1464 129.955 32.2864 130.096 32.4265C130.236 32.5666 130.377 32.7067 130.518 32.9168C130.658 33.1269 130.729 33.2669 130.799 33.5471C130.869 33.7572 130.869 34.0373 130.869 34.3175C130.869 34.8777 130.799 35.298 130.588 35.6481C130.377 35.9983 130.096 36.2084 129.815 36.4185C129.463 36.6286 129.111 36.6987 128.76 36.7687C128.338 36.8387 127.986 36.8387 127.635 36.8387H122.712V36.0683H122.642ZM125.947 35.7882C126.228 35.8582 126.509 35.8582 126.861 35.8582C127.142 35.8582 127.353 35.7882 127.564 35.7182C127.775 35.6481 127.986 35.5081 128.127 35.368C128.267 35.2279 128.408 35.0178 128.478 34.8777C128.549 34.7377 128.619 34.4575 128.619 34.1774C128.619 33.9673 128.619 33.7572 128.549 33.6171C128.478 33.407 128.408 33.2669 128.267 33.1269C128.127 32.9868 127.986 32.8467 127.775 32.7767C127.564 32.7066 127.283 32.6366 127.002 32.6366C126.791 32.6366 126.65 32.6366 126.439 32.7066C126.298 32.7066 126.158 32.7767 126.087 32.7767V35.7882H125.947ZM131.221 36.0683L132.135 35.9983L132.416 35.7182V29.415L132.135 29.1348L131.221 29.0648V28.2944H135.722V29.0648L134.807 29.1348L134.526 29.415V35.7182L134.807 35.9983L135.722 36.0683V36.8387H131.221V36.0683Z" fill="black"/>
<path d="M26.0761 30.0465L21.5388 34.4404L23.0095 35.9467L27.5467 31.5527L26.0761 30.0465Z" fill="#997958"/>
<path d="M21.3075 17.4387H1.75805C0.773541 17.4387 0 16.6683 0 15.6878V4.20205C0 3.22156 0.773541 2.45117 1.75805 2.45117H21.3075C22.292 2.45117 23.0656 3.22156 23.0656 4.20205V15.6878C23.0656 16.5983 22.292 17.4387 21.3075 17.4387Z" fill="#EF5B30"/>
<path d="M13.2203 13.937H19.268V20.8705L13.2203 14.9875V13.937Z" fill="#EF5B30"/>
<path d="M17.5809 32.9867H6.18871C5.2042 32.9867 4.43066 32.2163 4.43066 31.2358V24.2323C4.43066 23.2518 5.2042 22.4814 6.18871 22.4814H17.5809C18.5654 22.4814 19.3389 23.2518 19.3389 24.2323V31.2358C19.3389 32.2163 18.5654 32.9867 17.5809 32.9867Z" fill="#DCAA63"/>
<path d="M11.2515 28.9243H17.2991V35.8578L11.2515 29.9748V28.9243Z" fill="#DCAA63"/>
<path d="M23.2769 18.8394H21.1672V43.5618H23.2769V18.8394Z" fill="#997958"/>
<path d="M46.3421 28.7144H26.7926C25.8081 28.7144 25.0345 27.944 25.0345 26.9636V1.75088C25.0345 0.770387 25.8081 0 26.7926 0H46.3421C47.3266 0 48.1001 0.770387 48.1001 1.75088V26.9636C48.1001 27.944 47.3266 28.7144 46.3421 28.7144Z" fill="#22B14A"/>
<path d="M36.5675 26.1929H30.5198V33.1264L36.5675 27.1734V26.1929Z" fill="#22B14A"/>
</svg>
