<svg width="111" height="32" viewBox="0 0 111 32" fill="none" xmlns="http://www.w3.org/2000/svg">
<path d="M53.3111 13.9938C52.8978 14.1482 52.4329 14.2511 51.968 14.354C51.5031 14.4569 51.0381 14.4569 50.5732 14.4569C50.1083 14.4569 49.695 14.4054 49.2818 14.3025C48.8685 14.1996 48.5069 14.0453 48.197 13.891C47.5254 13.4794 47.0088 12.9649 46.5956 12.2446C46.234 11.5758 46.0273 10.8041 46.0273 9.98097C46.0273 9.31216 46.1306 8.69479 46.3889 8.12887C46.5956 7.56295 46.9572 7.09993 47.3704 6.68835C47.7837 6.27677 48.2486 6.01954 48.8169 5.81375C49.3851 5.60796 49.9533 5.50507 50.6249 5.50507C51.0381 5.50507 51.5031 5.55652 51.9163 5.60797C52.3296 5.65941 52.7945 5.81375 53.2594 5.96809V8.12887H52.3812L52.1229 6.7398L51.968 6.53401C51.813 6.48256 51.6064 6.43112 51.4514 6.37967C51.2964 6.32823 51.0898 6.32822 50.9348 6.32822C50.0566 6.32822 49.3334 6.6369 48.8169 7.30572C48.3003 7.97453 48.042 8.84914 48.042 9.98097C48.042 11.1128 48.3003 12.0389 48.8685 12.6562C49.4368 13.325 50.16 13.6337 51.1415 13.6337C51.2448 13.6337 51.3481 13.6337 51.503 13.5823C51.658 13.5823 51.7613 13.5308 51.9163 13.4794L52.1229 13.2736L52.4329 11.7302H53.3627V13.9938H53.3111Z" fill="#E8E8E8"/>
<path d="M60.2848 12.7077V13.6852C59.8199 13.9424 59.4067 14.1482 58.9418 14.2511C58.4768 14.354 58.0636 14.4569 57.5987 14.4569C56.6172 14.4569 55.8423 14.1482 55.2741 13.5823C54.7058 13.0164 54.3959 12.1932 54.3959 11.2157C54.3959 10.2382 54.7058 9.4665 55.2741 8.84914C55.894 8.23177 56.6172 7.9231 57.5987 7.9231C58.4252 7.9231 59.0967 8.18033 59.5616 8.6948C60.0266 9.20927 60.2848 9.92953 60.2848 10.8556V11.1128H56.0489V11.1643C56.0489 11.8845 56.2556 12.4504 56.6172 12.9135C56.9788 13.325 57.4953 13.5308 58.1669 13.5308C58.5285 13.5308 58.8384 13.4794 59.2 13.3765C59.51 13.1193 59.8716 12.9135 60.2848 12.7077ZM58.5801 10.3411V10.1868C58.5801 9.67229 58.4768 9.26072 58.2702 9.00348C58.0636 8.74624 57.8053 8.5919 57.4437 8.5919C57.0304 8.5919 56.7205 8.74625 56.5138 9.05493C56.3072 9.36361 56.1522 9.77519 56.1006 10.3411H58.5801Z" fill="#E8E8E8"/>
<path d="M64.0558 8.02594V8.33462L65.5022 12.3475L66.9487 8.33462V8.02594H69.8415V8.59185L69.1699 8.6433L68.9633 8.84909V13.4793L69.1699 13.6851L69.8415 13.7366V14.3025H66.587V13.7366L67.2586 13.6851L67.4652 13.4793V8.95199L65.5022 14.3025H64.8823L62.8677 8.95199V13.4793L63.0227 13.6851L63.6942 13.7366V14.3025H61.1113V13.7366L61.7829 13.6851L61.9895 13.4793V8.84909L61.7829 8.6433L61.1113 8.59185V8.02594H64.0558Z" fill="#E8E8E8"/>
<path d="M76.712 12.7077V13.6852C76.2471 13.9424 75.8338 14.1482 75.3689 14.2511C74.9039 14.354 74.4907 14.4569 74.0258 14.4569C73.0443 14.4569 72.2694 14.1482 71.7012 13.5823C71.1329 13.0164 70.823 12.1932 70.823 11.2157C70.823 10.2382 71.1329 9.4665 71.7012 8.84914C72.3211 8.23177 73.0443 7.9231 74.0258 7.9231C74.8523 7.9231 75.5238 8.18033 75.9888 8.6948C76.4537 9.20927 76.712 9.92953 76.712 10.8556V11.1128H72.476V11.1643C72.476 11.8845 72.6827 12.4504 73.0443 12.9135C73.4059 13.325 73.9225 13.5308 74.594 13.5308C74.9556 13.5308 75.2656 13.4794 75.6272 13.3765C75.9888 13.1193 76.3504 12.9135 76.712 12.7077ZM75.0073 10.3411V10.1868C75.0073 9.67229 74.904 9.26072 74.6973 9.00348C74.4907 8.74624 74.2324 8.5919 73.8708 8.5919C73.4575 8.5919 73.1476 8.74625 72.941 9.05493C72.7343 9.36361 72.5794 9.77519 72.5277 10.3411H75.0073Z" fill="#E8E8E8"/>
<path d="M77.6418 13.7363L78.3134 13.6849L78.52 13.4791V8.84883L78.3134 8.64305L77.6418 8.5916V8.02569H80.9479V8.5916L80.2764 8.64305L80.0698 8.84883V12.0386L82.7043 9.15752V8.84883L82.5493 8.64305L81.8778 8.5916V8.02569H85.1839V8.5916L84.5123 8.64305L84.3057 8.84883V13.4791L84.5123 13.6849L85.1839 13.7363V14.3022H81.8778V13.7363L82.5493 13.6849L82.7043 13.4791V10.1865L80.0698 13.0675V13.4791L80.2764 13.6849L80.9479 13.7363V14.3022H77.6418V13.7363ZM80.4314 6.27648C80.638 6.37937 80.8446 6.43082 80.9479 6.48227C81.0512 6.53372 81.2579 6.53371 81.3612 6.53371C81.5162 6.53371 81.6711 6.53372 81.8261 6.48227C81.9811 6.43082 82.1361 6.37937 82.3427 6.27648V5.35044C82.3944 5.24754 82.4977 5.19609 82.601 5.14464C82.7043 5.0932 82.8076 5.0932 83.0142 5.0932C83.2209 5.0932 83.4275 5.14464 83.5825 5.24754C83.7375 5.35043 83.7891 5.50477 83.7891 5.76201C83.7891 6.17358 83.5825 6.48227 83.1692 6.73951C82.756 6.99674 82.1877 7.09964 81.4129 7.09964C80.6897 7.09964 80.0698 6.99674 79.6565 6.73951C79.2432 6.48227 79.0366 6.17358 79.0366 5.76201C79.0366 5.55622 79.0883 5.35043 79.2432 5.24754C79.3982 5.14464 79.5532 5.0932 79.8115 5.0932C79.9664 5.0932 80.1214 5.0932 80.2247 5.14464C80.328 5.19609 80.4314 5.24754 80.483 5.35044V6.27648H80.4314Z" fill="#E8E8E8"/>
<path d="M86.0104 13.7366L86.6819 13.6851L86.8885 13.4793V8.84909L86.6819 8.6433L86.0104 8.59185V8.02594H89.3165V8.59185L88.6449 8.6433L88.4383 8.84909V10.6497H90.8662V8.84909L90.6596 8.6433L89.988 8.59185V8.02594H93.2941V8.59185L92.6226 8.6433L92.4159 8.84909V13.4793L92.6226 13.6851L93.2941 13.7366V14.3025H90.0913V13.7366L90.7629 13.6851L90.9695 13.4793V11.37H88.5416V13.4793L88.7482 13.6851L89.4198 13.7366V14.3025H86.1137V13.7366H86.0104Z" fill="#E8E8E8"/>
<path d="M94.2239 13.7366L94.8954 13.6851L95.1021 13.4793V8.84909L94.8954 8.6433L94.2239 8.59185V8.02594H97.6333V8.59185L96.8584 8.6433L96.6518 8.84909V10.5468C96.8068 10.5468 96.9617 10.4954 97.1167 10.4954C97.2717 10.4954 97.4267 10.4954 97.5816 10.4954C97.7366 10.4954 97.8399 10.4954 97.9949 10.4954C98.1499 10.4954 98.3048 10.4954 98.4598 10.5468C98.6148 10.5468 98.7698 10.5983 98.9247 10.6497C99.0797 10.7012 99.2347 10.7526 99.338 10.8041C99.493 10.8555 99.5963 10.9584 99.6996 11.0613C99.8029 11.1642 99.9062 11.2671 100.01 11.4214C100.113 11.5758 100.165 11.6787 100.216 11.8845C100.268 12.0388 100.268 12.2446 100.268 12.4504C100.268 12.862 100.216 13.1707 100.061 13.4279C99.9062 13.6851 99.6996 13.8395 99.493 13.9938C99.2347 14.1481 98.9764 14.1996 98.7181 14.251C98.4082 14.3025 98.1499 14.3025 97.8916 14.3025H94.2755V13.7366H94.2239ZM96.7034 13.5308C96.9101 13.5822 97.1167 13.5822 97.375 13.5822C97.5816 13.5822 97.7366 13.5308 97.8916 13.4793C98.0465 13.4279 98.2015 13.325 98.3048 13.2221C98.4081 13.1192 98.5115 12.9649 98.5631 12.862C98.6148 12.7591 98.6664 12.5533 98.6664 12.3475C98.6664 12.1932 98.6664 12.0388 98.6148 11.9359C98.5631 11.7816 98.5115 11.6787 98.4082 11.5758C98.3048 11.4729 98.2015 11.37 98.0465 11.3186C97.8916 11.2671 97.6849 11.2157 97.4783 11.2157C97.3233 11.2157 97.22 11.2157 97.065 11.2671C96.9617 11.2671 96.8584 11.3186 96.8068 11.3186V13.5308H96.7034ZM100.526 13.7366L101.198 13.6851L101.404 13.4793V8.84909L101.198 8.6433L100.526 8.59185V8.02594H103.832V8.59185L103.161 8.6433L102.954 8.84909V13.4793L103.161 13.6851L103.832 13.7366V14.3025H100.526V13.7366Z" fill="#E8E8E8"/>
<path d="M110.703 12.7077V13.6852C110.238 13.9424 109.825 14.1482 109.36 14.2511C108.895 14.354 108.481 14.4569 108.017 14.4569C107.035 14.4569 106.26 14.1482 105.692 13.5823C105.124 13.0164 104.814 12.1932 104.814 11.2157C104.814 10.2382 105.124 9.4665 105.692 8.84914C106.312 8.23177 107.035 7.9231 108.017 7.9231C108.843 7.9231 109.515 8.18033 109.979 8.6948C110.444 9.20927 110.703 9.92953 110.703 10.8556V11.1128H106.467V11.1643C106.467 11.8845 106.673 12.4504 107.035 12.9135C107.397 13.325 107.913 13.5308 108.585 13.5308C108.946 13.5308 109.256 13.4794 109.618 13.3765C109.928 13.1193 110.289 12.9135 110.703 12.7077ZM108.998 10.3411V10.1868C108.998 9.67229 108.895 9.26072 108.688 9.00348C108.481 8.74624 108.223 8.5919 107.862 8.5919C107.448 8.5919 107.138 8.74625 106.932 9.05493C106.725 9.36361 106.57 9.77519 106.518 10.3411H108.998Z" fill="#E8E8E8"/>
<path d="M53.9826 18.4182V19.0355L53.2594 19.087L53.0527 19.2928V26.1352L53.2594 26.341L53.9826 26.3925V27.0098H50.3665V26.3925L51.1414 26.341L51.348 26.1352V19.1899H49.5917C49.4884 21.8137 49.1268 23.8201 48.5585 25.1577C47.9903 26.4954 47.2154 27.2156 46.2856 27.2156C45.9756 27.2156 45.7174 27.1127 45.5107 26.9584C45.3041 26.804 45.2524 26.5468 45.2524 26.2896C45.2524 26.0323 45.3041 25.8265 45.4591 25.6722C45.5624 25.4664 45.769 25.3635 46.0273 25.3121L47.0605 26.0838C47.1638 25.9809 47.2671 25.8265 47.3187 25.6722C47.4221 25.5179 47.5254 25.3121 47.6287 25.0548C47.732 24.7976 47.8353 24.4889 47.9386 24.1288C48.0419 23.7687 48.1453 23.3056 48.2486 22.7912C48.3002 22.4825 48.3519 22.1738 48.4035 21.9165C48.4552 21.6079 48.4552 21.3506 48.5069 21.042C48.5585 20.7333 48.5585 20.476 48.5585 20.2188C48.5585 19.9616 48.6102 19.7043 48.6102 19.4985L48.4035 19.2928L47.3187 19.2413V18.4182H53.9826Z" fill="#E8E8E8"/>
<path d="M60.9048 25.4661V26.4436C60.4399 26.7008 60.0267 26.9066 59.5617 27.0095C59.0968 27.1124 58.6836 27.2153 58.2186 27.2153C57.2371 27.2153 56.4623 26.9066 55.894 26.3407C55.3258 25.7748 55.0159 24.9516 55.0159 23.9741C55.0159 22.9966 55.3258 22.2249 55.894 21.6076C56.5139 20.9902 57.2371 20.6815 58.2186 20.6815C59.0452 20.6815 59.7167 20.9388 60.1816 21.4532C60.6466 21.9677 60.9048 22.688 60.9048 23.614V23.8712H56.6689V23.9227C56.6689 24.643 56.8755 25.2089 57.2371 25.6719C57.5987 26.0835 58.1153 26.2893 58.7869 26.2893C59.1485 26.2893 59.4584 26.2378 59.82 26.1349C60.13 25.8777 60.4916 25.7233 60.9048 25.4661ZM59.2001 23.0995V22.9452C59.2001 22.4307 59.0968 22.0191 58.8902 21.7619C58.6836 21.5047 58.4253 21.3503 58.0637 21.3503C57.6504 21.3503 57.3405 21.5047 57.1338 21.8134C56.9272 22.122 56.7722 22.5336 56.7206 23.0995H59.2001Z" fill="#E8E8E8"/>
<path d="M61.783 26.4953L62.4545 26.4439L62.6612 26.2381V21.6078L62.4545 21.402L61.7313 21.3506V20.7847H67.1037V22.9969H66.2255L66.0189 21.7107L65.8639 21.5049H64.2625V26.2381L64.4692 26.4439L65.399 26.4953V27.0612H61.8346V26.4953H61.783Z" fill="#E8E8E8"/>
<path d="M73.7676 25.4661V26.4436C73.3027 26.7008 72.8895 26.9066 72.4245 27.0095C71.9596 27.1124 71.5464 27.2153 71.0814 27.2153C70.0999 27.2153 69.3251 26.9066 68.7568 26.3407C68.1886 25.7748 67.8787 24.9516 67.8787 23.9741C67.8787 22.9966 68.1886 22.2249 68.7568 21.6076C69.3767 20.9902 70.0999 20.6815 71.0814 20.6815C71.908 20.6815 72.5795 20.9388 73.0444 21.4532C73.5093 21.9677 73.7676 22.688 73.7676 23.614V23.8712H69.5317V23.9227C69.5317 24.643 69.7383 25.2089 70.0999 25.6719C70.4615 26.0835 70.9781 26.2893 71.6497 26.2893C72.0113 26.2893 72.3212 26.2378 72.6828 26.1349C72.9928 25.8777 73.3544 25.7233 73.7676 25.4661ZM72.0629 23.0995V22.9452C72.0629 22.4307 71.9596 22.0191 71.753 21.7619C71.5464 21.5047 71.2881 21.3503 70.9265 21.3503C70.5132 21.3503 70.2033 21.5047 69.9966 21.8134C69.79 22.122 69.635 22.5336 69.5834 23.0995H72.0629Z" fill="#E8E8E8"/>
<path d="M74.6458 26.4953L75.3173 26.4439L75.5239 26.2381V21.6078L75.3173 21.402L74.6458 21.3506V20.7847H77.9518V21.3506L77.2803 21.402L77.0737 21.6078V23.4085H79.5016V21.6078L79.2949 21.402L78.6234 21.3506V20.7847H81.9295V21.3506L81.2579 21.402L81.0513 21.6078V26.2381L81.2579 26.4439L81.9295 26.4953V27.0612H78.7267V26.4953L79.3982 26.4439L79.6049 26.2381V24.1287H77.177V26.2381L77.3836 26.4439L78.0552 26.4953V27.0612H74.7491V26.4953H74.6458Z" fill="#E8E8E8"/>
<path d="M89.2132 20.7847V21.3506L88.5416 21.402L88.3867 21.6078V26.1866L88.5416 26.2895H89.3165V28.9133H88.4383L88.18 27.267L87.9734 27.0612H83.7891L83.5825 27.267L83.3242 28.9133H82.446V26.2895H83.0659C83.2726 25.9808 83.4792 25.6207 83.6342 25.2091C83.8408 24.7975 83.9958 24.4374 84.1507 24.0258C84.3057 23.6143 84.4607 23.2027 84.564 22.7911C84.6673 22.3795 84.7706 21.968 84.8223 21.6078L84.6157 21.402L83.7891 21.3506V20.7847H89.2132ZM86.7853 26.341V21.5049H85.7005C85.6488 21.8651 85.5455 22.2766 85.4422 22.6882C85.3389 23.0998 85.2355 23.5628 85.0806 23.9744C84.9256 24.386 84.7706 24.7975 84.6157 25.2091C84.4607 25.6207 84.2541 25.9808 84.0474 26.2895H86.7853V26.341Z" fill="#E8E8E8"/>
<path d="M90.0914 26.4953L90.763 26.4439L90.9696 26.2381V21.6078L90.763 21.402L90.0914 21.3506V20.7847H93.5008V21.3506L92.726 21.402L92.5193 21.6078V23.3056C92.6743 23.3056 92.8293 23.2541 92.9843 23.2541C93.1392 23.2541 93.2942 23.2541 93.4492 23.2541C93.6042 23.2541 93.7075 23.2541 93.8624 23.2541C94.0174 23.2541 94.1724 23.2541 94.3274 23.3056C94.4823 23.3056 94.6373 23.357 94.7923 23.4085C94.9473 23.4599 95.1022 23.5114 95.2055 23.5628C95.3605 23.6143 95.4638 23.7172 95.5671 23.82C95.6705 23.9229 95.7738 24.0258 95.8771 24.1802C95.9804 24.3345 96.0321 24.4374 96.0837 24.6432C96.1354 24.7975 96.1354 25.0033 96.1354 25.2091C96.1354 25.6207 96.0837 25.9294 95.9287 26.1866C95.7738 26.4439 95.5672 26.5982 95.3605 26.7525C95.1022 26.9069 94.8439 26.9583 94.5857 27.0098C94.2757 27.0612 94.0174 27.0612 93.7591 27.0612H90.1431V26.4953H90.0914ZM92.5193 26.2895C92.726 26.3409 92.9326 26.341 93.1909 26.341C93.3975 26.341 93.5525 26.2895 93.7075 26.2381C93.8624 26.1866 94.0174 26.0837 94.1207 25.9808C94.224 25.8779 94.3274 25.7236 94.379 25.6207C94.4307 25.5178 94.4823 25.312 94.4823 25.1062C94.4823 24.9519 94.4823 24.7975 94.4307 24.6947C94.379 24.5403 94.3274 24.4374 94.224 24.3345C94.1207 24.2316 94.0174 24.1287 93.8624 24.0773C93.7075 24.0258 93.5008 23.9744 93.2942 23.9744C93.1392 23.9744 93.0359 23.9744 92.8809 24.0258C92.7776 24.0258 92.6743 24.0773 92.6227 24.0773V26.2895H92.5193ZM96.3937 26.4953L97.0652 26.4439L97.2718 26.2381V21.6078L97.0652 21.402L96.3937 21.3506V20.7847H99.6998V21.3506L99.0282 21.402L98.8216 21.6078V26.2381L99.0282 26.4439L99.6998 26.4953V27.0612H96.3937V26.4953Z" fill="#E8E8E8"/>
<path d="M19.1553 22.0719L15.8223 25.2997L16.9026 26.4062L20.2356 23.1784L19.1553 22.0719Z" fill="#997958"/>
<path d="M15.6523 12.8103H1.29144C0.568235 12.8103 0 12.2444 0 11.5242V3.08684C0 2.36658 0.568235 1.80066 1.29144 1.80066H15.6523C16.3755 1.80066 16.9437 2.36658 16.9437 3.08684V11.5242C16.9437 12.193 16.3755 12.8103 15.6523 12.8103Z" fill="#EF5B30"/>
<path d="M9.71204 10.238H14.1546V15.3312L9.71204 11.0097V10.238Z" fill="#EF5B30"/>
<path d="M12.9149 24.2315H4.54633C3.82312 24.2315 3.25488 23.6656 3.25488 22.9453V17.8006C3.25488 17.0804 3.82312 16.5145 4.54633 16.5145H12.9149C13.6381 16.5145 14.2063 17.0804 14.2063 17.8006V22.9453C14.2063 23.6656 13.6381 24.2315 12.9149 24.2315Z" fill="#DCAA63"/>
<path d="M8.26526 21.2475H12.7078V26.3408L8.26526 22.0192V21.2475Z" fill="#DCAA63"/>
<path d="M17.0989 13.8391H15.5492V31.9999H17.0989V13.8391Z" fill="#997958"/>
<path d="M34.0427 21.0933H19.6818C18.9586 21.0933 18.3904 20.5274 18.3904 19.8071V1.28618C18.3904 0.565918 18.9586 0 19.6818 0H34.0427C34.7659 0 35.3341 0.565918 35.3341 1.28618V19.8071C35.3341 20.5274 34.7659 21.0933 34.0427 21.0933Z" fill="#22B14A"/>
<path d="M26.8622 19.2411H22.4197V24.3344L26.8622 19.9613V19.2411Z" fill="#22B14A"/>
</svg>
