<svg width="14" height="17" viewBox="0 0 14 17" fill="none" xmlns="http://www.w3.org/2000/svg">
<path fill-rule="evenodd" clip-rule="evenodd" d="M10.1454 4.10046C8.8455 4.10046 7.7878 4.88356 7.1153 4.88356C6.40029 4.88356 5.4521 4.14382 4.3184 4.14382C2.17079 4.14382 0 5.90644 0 9.20212C0 11.2683 0.80519 13.4314 1.7959 14.8356C2.65519 16.0205 3.4037 17 4.47299 17C5.541 17 6.0035 16.2921 7.3253 16.2921C8.669 16.2921 8.9769 16.9783 10.1454 16.9783C11.3126 16.9783 12.0946 15.9236 12.8225 14.879C13.6483 13.6826 13.9897 12.5297 14 12.4646C13.9343 12.4429 11.6991 11.5502 11.6991 9.02738C11.6991 6.84132 13.4602 5.87328 13.5594 5.79803C12.4025 4.14382 10.6401 4.10046 10.1454 4.10046ZM9.5386 2.70898C10.0681 2.07765 10.4417 1.20782 10.4417 0.337985C10.4417 0.218096 10.4314 0.0982069 10.4095 0C9.5502 0.0331608 8.5041 0.566284 7.887 1.28434C7.391 1.83915 6.94009 2.70898 6.94009 3.58902C6.94009 3.72038 6.962 3.85048 6.97359 3.89384C7.0277 3.90532 7.1153 3.91552 7.2042 3.91552C7.9862 3.91552 8.9666 3.40536 9.5386 2.70898Z" fill="black"/>
</svg>
