<svg width="30" height="30" viewBox="0 0 30 30" fill="none" xmlns="http://www.w3.org/2000/svg">
<path fill-rule="evenodd" clip-rule="evenodd" d="M14.9996 0C10.1153 0 9.53576 0.0178306 7.60633 0.106101C5.82221 0.187239 4.85304 0.484146 4.2084 0.735575C3.35334 1.06637 2.74438 1.46403 2.1042 2.1042C1.46492 2.74616 1.06815 3.35513 0.735584 4.2093C0.485929 4.8557 0.187239 5.82311 0.106101 7.60722C0.0196226 9.53756 0 10.1153 0 15.0013C0 19.8874 0.0178306 20.466 0.106993 22.3946C0.188131 24.1787 0.485037 25.1479 0.736467 25.7925C1.06726 26.6467 1.46403 27.2556 2.10509 27.8958C2.74616 28.536 3.35512 28.9318 4.20929 29.2644C4.85393 29.5159 5.8231 29.8128 7.60722 29.8939C9.53576 29.983 10.1153 30 14.9996 30C19.8856 30 20.4651 29.9822 22.3937 29.8939C24.1778 29.8128 25.147 29.5159 25.7916 29.2644C26.6458 28.9318 27.2556 28.536 27.8958 27.8958C28.536 27.2556 28.9318 26.6467 29.2644 25.7925C29.5141 25.1479 29.8128 24.1787 29.8939 22.3946C29.9822 20.4642 30 19.8847 30 15.0004C30 10.1144 29.9822 9.53666 29.8939 7.60633C29.8128 5.82221 29.5159 4.85304 29.2644 4.2084C28.9318 3.35423 28.5369 2.74438 27.8958 2.1042C27.2547 1.46403 26.6458 1.06637 25.7916 0.735575C25.1452 0.485929 24.1778 0.187239 22.3937 0.106101C20.4633 0.0196137 19.8856 0 14.9996 0Z" fill="#F4F4F4"/>
</svg>
