<svg width="24" height="24" viewBox="0 0 24 24" fill="none" xmlns="http://www.w3.org/2000/svg">
<path d="M19.4894 8.23438C19.4894 7.91078 19.2271 7.64844 18.9035 7.64844H18.2072C17.915 4.48902 15.2579 2 11.9992 2C8.7374 2 6.08436 4.49309 5.7924 7.64844H5.09619C4.7726 7.64844 4.51025 7.91078 4.51025 8.23438V17.1458H19.4894V8.23438H19.4894ZM15.7238 10.7448C15.7238 11.0684 15.4614 11.3307 15.1378 11.3307H13.841V13.8828C13.841 14.2064 13.5787 14.4688 13.2551 14.4688H10.7446C10.421 14.4688 10.1587 14.2064 10.1587 13.8828V11.3307H8.86182C8.53822 11.3307 8.27588 11.0684 8.27588 10.7448V8.23438C8.27588 7.91078 8.53822 7.64844 8.86182 7.64844H10.1587V6.35156C10.1587 6.02797 10.421 5.76562 10.7446 5.76562H13.2551C13.5787 5.76562 13.841 6.02797 13.841 6.35156V7.64844H15.1378C15.4614 7.64844 15.7238 7.91078 15.7238 8.23438V10.7448Z" fill="black" fill-opacity="0.87"/>
<path d="M12.6696 8.2334V6.93652H11.331V8.2334C11.331 8.55699 11.0687 8.81934 10.7451 8.81934H9.44824V10.1579H10.7451C11.0687 10.1579 11.331 10.4202 11.331 10.7438V13.2959H12.6696V10.7438C12.6696 10.4202 12.9319 10.1579 13.2555 10.1579H14.5524V8.81934H13.2555C12.9319 8.81934 12.6696 8.55699 12.6696 8.2334Z" fill="black" fill-opacity="0.87"/>
<path d="M20.1588 18.3174H3.84113C2.83148 18.3174 2 19.1334 2 20.1586V21.4138C2 21.7374 2.26234 21.9997 2.58594 21.9997H21.4141C21.7377 21.9997 22 21.7374 22 21.4138V20.1586C22 19.132 21.1669 18.3174 20.1588 18.3174Z" fill="black" fill-opacity="0.87"/>
</svg>
