<svg width="10" height="12" viewBox="0 0 10 12" fill="none" xmlns="http://www.w3.org/2000/svg">
<path
  d="M7.22222 6.6H5.55556C5.25 6.6 5 6.87 5 7.2V9C5 9.33 5.25 9.6 5.55556 9.6H7.22222C7.52778 9.6 7.77778 9.33 7.77778 9V7.2C7.77778 6.87 7.52778 6.6 7.22222 6.6ZM7.22222 0.6V1.2H2.77778V0.6C2.77778 0.27 2.52778 0 2.22222 0C1.91667 0 1.66667 0.27 1.66667 0.6V1.2H1.11111C0.494444 1.2 0.00555555 1.74 0.00555555 2.4L0 10.8C0 11.46 0.494444 12 1.11111 12H8.88889C9.5 12 10 11.46 10 10.8V2.4C10 1.74 9.5 1.2 8.88889 1.2H8.33333V0.6C8.33333 0.27 8.08333 0 7.77778 0C7.47222 0 7.22222 0.27 7.22222 0.6ZM8.33333 10.8H1.66667C1.36111 10.8 1.11111 10.53 1.11111 10.2V4.2H8.88889V10.2C8.88889 10.53 8.63889 10.8 8.33333 10.8Z"
  fill="currentcolor"
/>
</svg>
