<svg width="16" height="16" viewBox="0 0 16 16" fill="none" xmlns="http://www.w3.org/2000/svg">
<path fill-rule="evenodd" clip-rule="evenodd" d="M13.6506 4.01072C13.6506 4.9305 14.1646 6.19253 14.807 6.83425C15.428 7.45457 15.428 8.52409 14.807 9.1658C14.186 9.80751 13.6506 11.0909 13.6506 11.9893C13.6506 12.8877 12.9011 13.6364 12.0018 13.6364C11.081 13.6364 9.81753 14.1498 9.17511 14.7915C8.53269 15.4332 7.48341 15.4332 6.84099 14.7915C6.19857 14.1711 4.91373 13.6364 4.01434 13.6364C3.11495 13.6364 2.36547 12.8877 2.36547 11.9893C2.36547 11.0695 1.85153 9.80751 1.20911 9.1658C0.56669 8.52409 0.56669 7.47596 1.20911 6.83425C1.83012 6.19253 2.36547 4.90911 2.36547 4.01072C2.36547 3.11232 3.11495 2.36366 4.01434 2.36366C4.93514 2.36366 6.19857 1.85029 6.84099 1.20858C7.48341 0.566867 8.53269 0.566867 9.17511 1.20858C9.81753 1.8289 11.1024 2.36366 12.0018 2.36366C12.9011 2.36366 13.6506 3.11232 13.6506 4.01072ZM11.7589 5.17085C11.4604 4.92454 11.0005 4.94673 10.7319 5.2204L6.67226 9.35517L5.2505 8.00362C4.9717 7.73858 4.51129 7.73091 4.22216 7.98648C3.93302 8.24205 3.92465 8.66409 4.20346 8.92913L6.16709 10.7958C6.45996 11.0742 6.94895 11.0665 7.23119 10.779L11.813 6.11236C12.0817 5.83868 12.0575 5.41716 11.7589 5.17085Z" fill="#22B14A"/>
</svg>
