<svg width="16" height="16" viewBox="0 0 16 16" fill="none" xmlns="http://www.w3.org/2000/svg">
<g clip-path="url(#clip0)">
<path fill-rule="evenodd" clip-rule="evenodd" d="M11.5263 2.90931C11.328 1.27262 9.9314 0 8.2424 0H7.75556C6.06651 0 4.66998 1.27262 4.47168 2.90931H11.5263ZM4.51855 9.36047C4.8357 10.8567 6.16629 11.983 7.7553 11.983H8.24214C9.83115 11.983 11.1617 10.8568 11.4789 9.36047H4.51855ZM12.324 5.99477C12.324 5.69621 12.5661 5.45416 12.8646 5.45416C13.1631 5.45416 13.4052 5.69621 13.4052 5.99477V8.74731C13.4052 11.5891 11.2361 13.9103 8.54004 13.9923V14.9197H9.86384C10.1624 14.9197 10.4044 15.1618 10.4044 15.4603C10.4044 15.7589 10.1624 16.0009 9.86384 16.0009H6.13508C5.83652 16.0009 5.59453 15.7589 5.59453 15.4603C5.59453 15.1618 5.83652 14.9197 6.13508 14.9197H7.45888V13.9923C4.76291 13.9103 2.59375 11.5891 2.59375 8.74731V5.99477C2.59375 5.69621 2.8358 5.45416 3.1343 5.45416C3.43286 5.45416 3.67491 5.69621 3.67491 5.99477V6.52789H4.44711V3.77502H11.5518V6.52789H12.324V5.99477ZM8.39238 12.9136C10.5603 12.9136 12.324 11.0445 12.324 8.74725V7.60899H11.5518V8.4968H4.44711V7.60899H3.6748V8.74725C3.6748 11.0446 5.43846 12.9136 7.60633 12.9136H8.39238Z" fill="#9e9e9e"/>
</g>
<defs>
<clipPath id="clip0">
<rect width="16" height="16" fill="white"/>
</clipPath>
</defs>
</svg>
