<svg viewBox="0 0 15 11" fill="none" xmlns="http://www.w3.org/2000/svg" width="30" height="22"><path d="M9.54545 5.5C11.0523 5.5 12.2727 4.26937 12.2727 2.75C12.2727 1.23062 11.0523 0 9.54545 0C8.03864 0 6.81818 1.23062 6.81818 2.75C6.81818 4.26937 8.03864 5.5 9.54545 5.5ZM3.40909 4.125V2.75C3.40909 2.37188 3.10227 2.0625 2.72727 2.0625C2.35227 2.0625 2.04545 2.37188 2.04545 2.75V4.125H0.681818C0.306818 4.125 0 4.43437 0 4.8125C0 5.19063 0.306818 5.5 0.681818 5.5H2.04545V6.875C2.04545 7.25313 2.35227 7.5625 2.72727 7.5625C3.10227 7.5625 3.40909 7.25313 3.40909 6.875V5.5H4.77273C5.14773 5.5 5.45455 5.19063 5.45455 4.8125C5.45455 4.43437 5.14773 4.125 4.77273 4.125H3.40909ZM9.54545 6.875C7.725 6.875 4.09091 7.79625 4.09091 9.625V10.3125C4.09091 10.6906 4.39773 11 4.77273 11H14.3182C14.6932 11 15 10.6906 15 10.3125V9.625C15 7.79625 11.3659 6.875 9.54545 6.875Z" fill="#D4AC6D"></path></svg>