<svg width="16" height="16" viewBox="0 0 16 16" fill="none" xmlns="http://www.w3.org/2000/svg">
<g clip-path="url(#clip0)">
<path d="M15.5028 5.925C14.9202 5.43518 14.0288 5.49353 13.523 6.09665L13.219 6.45628L15.3735 8.26406L15.6638 7.90574C16.163 7.31199 16.0998 6.42525 15.5028 5.925Z" fill="#9e9e9e"/>
<path d="M9.41821 10.9543L9.25786 11.1441C9.11871 11.3107 9.01845 11.5098 8.96811 11.7209L8.53233 13.5446C8.49114 13.7172 8.55111 13.8984 8.68705 14.0124C8.81936 14.1236 9.00599 14.1559 9.17458 14.0839L10.8953 13.3377C11.0944 13.2512 11.273 13.118 11.4121 12.9527L11.573 12.7623L9.41821 10.9543Z" fill="#9e9e9e"/>
<path d="M12.614 7.17261L10.0227 10.2387L12.1774 12.0467L14.7686 8.98039L12.614 7.17261Z" fill="#9e9e9e"/>
<path d="M11.7506 2.0781L9.96994 0.386189C9.8016 0.226596 9.5945 0.132596 9.37622 0.0715332V2.81235H12.1591C12.1009 2.53391 11.9591 2.27597 11.7506 2.0781Z" fill="#9e9e9e"/>
<path d="M8.05701 11.5028C8.14079 11.1522 8.30785 10.8203 8.53948 10.5429L12.1897 6.22372V3.75H8.90845C8.64935 3.75 8.4397 3.54034 8.4397 3.28125V0H1.40845C0.63301 0 0.00219727 0.630813 0.00219727 1.40625V14.5938C0.00219727 15.3692 0.63301 16 1.40845 16H10.7834C11.5589 16 12.1897 15.3692 12.1897 14.5938V13.4857L12.1288 13.5577C11.8986 13.8319 11.6015 14.053 11.2705 14.1972L9.54842 14.9438C9.06304 15.1534 8.5012 15.0792 8.08542 14.731C7.67479 14.3863 7.49673 13.8484 7.62123 13.3266L8.05701 11.5028ZM2.34595 2.8125H7.03345C7.29254 2.8125 7.5022 3.02216 7.5022 3.28125C7.5022 3.54034 7.29254 3.75 7.03345 3.75H2.34595C2.08685 3.75 1.8772 3.54034 1.8772 3.28125C1.8772 3.02216 2.08685 2.8125 2.34595 2.8125ZM2.34595 5.65625H9.84595C10.105 5.65625 10.3147 5.86591 10.3147 6.125C10.3147 6.38409 10.105 6.59375 9.84595 6.59375H2.34595C2.08685 6.59375 1.8772 6.38409 1.8772 6.125C1.8772 5.86591 2.08685 5.65625 2.34595 5.65625ZM6.09595 12.2188H2.34595C2.08685 12.2188 1.8772 12.0091 1.8772 11.75C1.8772 11.4909 2.08685 11.2812 2.34595 11.2812H6.09595C6.35504 11.2812 6.5647 11.4909 6.5647 11.75C6.5647 12.0091 6.35504 12.2188 6.09595 12.2188ZM2.34595 9.40625C2.08685 9.40625 1.8772 9.19659 1.8772 8.9375C1.8772 8.67841 2.08685 8.46875 2.34595 8.46875H7.97095C8.23004 8.46875 8.4397 8.67841 8.4397 8.9375C8.4397 9.19659 8.23004 9.40625 7.97095 9.40625H2.34595Z" fill="#9e9e9e"/>
</g>
<defs>
<clipPath id="clip0">
<rect width="16" height="16" fill="white"/>
</clipPath>
</defs>
</svg>
