<svg width="11" height="20" viewBox="0 0 13 22" fill="none" xmlns="http://www.w3.org/2000/svg"><path d="M6.37533 11.3252C9.17637 11.3242 11.4452 8.98794 11.4443 6.10799C11.4434 3.22711 9.17185 0.893602 6.37172 0.894532C3.57159 0.895461 1.30184 3.23176 1.30275 6.11171C1.30636 8.99073 3.5761 11.3233 6.37533 11.3252ZM6.37533 3.95198C7.5355 3.95198 8.47611 4.9194 8.47611 6.11264C8.47611 7.30588 7.5355 8.27237 6.37533 8.27237C5.21516 8.27237 4.27456 7.30495 4.27456 6.11171C4.27636 4.9194 5.21607 3.95291 6.37533 3.95198ZM8.42551 15.5805C9.46912 15.337 10.4648 14.9123 11.3711 14.3259C12.0614 13.8678 12.2602 12.9217 11.8148 12.2117C11.3765 11.5129 10.4748 11.3019 9.78627 11.7378C7.69814 13.0806 5.0471 13.0806 2.95897 11.7378C2.26594 11.2908 1.35064 11.5045 0.914217 12.2164C0.47599 12.9292 0.682002 13.8734 1.37594 14.3241C1.37684 14.3241 1.37774 14.325 1.37774 14.325C2.28311 14.9105 3.27883 15.3352 4.32154 15.5796L1.48617 18.4958C0.921445 19.1091 0.947648 20.0775 1.5449 20.6583C2.11866 21.2159 3.01499 21.2159 3.58875 20.6583L6.37353 17.7923L9.1601 20.6583C9.74019 21.254 10.679 21.254 11.2591 20.6583C11.8383 20.0617 11.8383 19.0961 11.2591 18.4995L8.42551 15.5805Z" fill="#ffffff"></path></svg>
