<svg width="14" height="11" viewBox="0 0 14 11" fill="none" xmlns="http://www.w3.org/2000/svg">
<path
  d="M10.15 5.5C11.116 5.5 11.893 4.62 11.893 3.53571C11.893 2.45143 11.116 1.57143 10.15 1.57143C9.184 1.57143 8.4 2.45143 8.4 3.53571C8.4 4.62 9.184 5.5 10.15 5.5ZM4.9 4.71429C6.062 4.71429 6.993 3.66143 6.993 2.35714C6.993 1.05286 6.062 0 4.9 0C3.738 0 2.8 1.05286 2.8 2.35714C2.8 3.66143 3.738 4.71429 4.9 4.71429ZM10.15 7.07143C8.869 7.07143 6.3 7.79429 6.3 9.23214V10.2143C6.3 10.6464 6.615 11 7 11H13.3C13.685 11 14 10.6464 14 10.2143V9.23214C14 7.79429 11.431 7.07143 10.15 7.07143ZM4.9 6.28571C3.269 6.28571 0 7.205 0 9.03571V10.2143C0 10.6464 0.315 11 0.7 11H4.9V9.23214C4.9 8.56429 5.131 7.39357 6.559 6.50571C5.95 6.36429 5.362 6.28571 4.9 6.28571Z"
  fill="#FFFFFF"
/>
</svg>
