<svg width="16" height="16" viewBox="0 0 16 16" fill="none" xmlns="http://www.w3.org/2000/svg">
<g clip-path="url(#clip0)">
<path d="M2.33548 7.0319H0V13.6642C0 14.0642 0.322581 14.3867 0.722581 14.3867H15.1742C15.6258 14.3867 16 14.0125 16 13.5609V4.59319C16 4.15448 15.6516 3.8061 15.2129 3.8061H11.4968C11.1097 3.8061 10.7871 3.52223 10.7356 3.14803L10.6066 2.29642C10.5421 1.92223 10.2195 1.61255 9.84529 1.61255H6.12903C5.74194 1.61255 5.41935 1.90932 5.36774 2.29642L5.23871 3.14803C5.1871 3.52223 4.85161 3.8061 4.47742 3.8061H0.774194C0.348387 3.8061 0 4.15448 0 4.58029V5.22545H2.33548C2.82581 5.22545 3.22581 5.62545 3.22581 6.11577V6.12868C3.22581 6.6319 2.82581 7.0319 2.33548 7.0319ZM13.9355 5.25126C14.4387 5.25126 14.8387 5.65126 14.8387 6.15448C14.8387 6.65771 14.4387 7.05771 13.9355 7.05771C13.4323 7.05771 13.0323 6.65771 13.0323 6.15448C13.0323 5.66416 13.4323 5.25126 13.9355 5.25126ZM8.03871 5.57384C10.1808 5.57384 11.9097 7.30287 11.9097 9.44481C11.9097 11.5867 10.1808 13.3158 8.03871 13.3158C5.89677 13.3158 4.16774 11.5867 4.16774 9.44481C4.16774 7.30287 5.90968 5.57384 8.03871 5.57384Z" fill="#D4AC6D"/>
<path d="M7.99994 11.38C9.06888 11.38 9.93542 10.5135 9.93542 9.44452C9.93542 8.37558 9.06888 7.50903 7.99994 7.50903C6.931 7.50903 6.06445 8.37558 6.06445 9.44452C6.06445 10.5135 6.931 11.38 7.99994 11.38Z" fill="#D4AC6D"/>
</g>
<defs>
<clipPath id="clip0">
<rect width="16" height="16" fill="white"/>
</clipPath>
</defs>
</svg>
