<svg width="16" height="16" viewBox="0 0 16 16" fill="none" xmlns="http://www.w3.org/2000/svg">
<path d="M7.99992 1.33325C5.41992 1.33325 3.33325 3.41992 3.33325 5.99992C3.33325 8.77992 6.27992 12.6133 7.49325 14.0733C7.75992 14.3933 8.24659 14.3933 8.51325 14.0733C9.71992 12.6133 12.6666 8.77992 12.6666 5.99992C12.6666 3.41992 10.5799 1.33325 7.99992 1.33325ZM7.99992 7.66659C7.07992 7.66659 6.33325 6.91992 6.33325 5.99992C6.33325 5.07992 7.07992 4.33325 7.99992 4.33325C8.91992 4.33325 9.66659 5.07992 9.66659 5.99992C9.66659 6.91992 8.91992 7.66659 7.99992 7.66659Z" fill="black" fill-opacity="0.12"/>
</svg>
