<svg viewBox="0 0 8 11" fill="currentcolor" xmlns="http://www.w3.org/2000/svg" width="16" height="22"><path d="M4 0C1.78857 0 0 1.76836 0 3.9548C0 6.31073 2.52571 9.55932 3.56571 10.7966C3.79429 11.0678 4.21143 11.0678 4.44 10.7966C5.47429 9.55932 8 6.31073 8 3.9548C8 1.76836 6.21143 0 4 0ZM4 5.36723C3.21143 5.36723 2.57143 4.73446 2.57143 3.9548C2.57143 3.17514 3.21143 2.54237 4 2.54237C4.78857 2.54237 5.42857 3.17514 5.42857 3.9548C5.42857 4.73446 4.78857 5.36723 4 5.36723Z" fill="#FFFFFF"></path></svg>