<svg width="12" height="14" viewBox="0 0 12 14" fill="none" xmlns="http://www.w3.org/2000/svg">
<path
  d="M6.00008 7.00004C6.73341 7.00004 7.33341 6.40004 7.33341 5.66671C7.33341 4.93337 6.73341 4.33337 6.00008 4.33337C5.26675 4.33337 4.66675 4.93337 4.66675 5.66671C4.66675 6.40004 5.26675 7.00004 6.00008 7.00004ZM6.00008 0.333374C8.80008 0.333374 11.3334 2.48004 11.3334 5.80004C11.3334 7.92004 9.70008 10.4134 6.44008 13.2867C6.18675 13.5067 5.80675 13.5067 5.55341 13.2867C2.30008 10.4134 0.666748 7.92004 0.666748 5.80004C0.666748 2.48004 3.20008 0.333374 6.00008 0.333374Z"
  fill="currentColor"
/>
</svg>
