<svg width="19" height="10" viewBox="0 0 20 11" fill="none" xmlns="http://www.w3.org/2000/svg"><path fill-rule="evenodd" clip-rule="evenodd" d="M10.1935 10.2522H11.3423C11.3423 10.2522 11.687 10.1988 11.8593 10.0385C12.0316 9.87829 12.0316 9.55781 12.0316 9.55781C12.0316 9.55781 12.0316 8.16906 12.7209 7.95541C13.4101 7.74175 14.3292 9.34416 15.2482 9.9317C15.9375 10.4124 16.4544 10.3056 16.4544 10.3056L18.9817 10.2522C18.9817 10.2522 20.3028 10.1988 19.671 9.18392C19.6136 9.1305 19.3264 8.48954 17.7755 7.1542C16.1672 5.76545 16.397 6.03252 18.2925 3.62891C19.4413 2.18675 19.9008 1.33213 19.7859 0.904824C19.671 0.53093 18.8094 0.637757 18.8094 0.637757H15.9375C15.9375 0.637757 15.7077 0.584343 15.5928 0.69117C15.4205 0.797997 15.3631 0.958238 15.3631 0.958238C15.3631 0.958238 14.9036 2.07992 14.3292 3.04136C13.0655 5.01766 12.5486 5.12449 12.3762 5.01766C11.9167 4.7506 12.0316 3.84257 12.0316 3.25502C12.0316 1.33213 12.3762 0.53093 11.3998 0.317276C11.1126 0.263862 10.8828 0.210449 10.0787 0.210449C9.04476 0.210449 8.18317 0.210449 7.72366 0.424103C7.37902 0.584343 7.14927 0.904824 7.32158 0.904824C7.4939 0.904824 7.95342 1.01165 8.18317 1.27872C8.41293 1.75944 8.41293 2.56064 8.41293 2.56064C8.41293 2.56064 8.58525 4.85742 8.01085 5.12449C7.60878 5.33814 7.09183 4.91084 5.94304 3.09478C5.36865 2.18675 4.90914 1.11848 4.90914 1.11848C4.90914 1.11848 4.8517 0.904825 4.67938 0.797998C4.50706 0.691171 4.21987 0.637757 4.21987 0.637757H1.52022C1.52022 0.637757 1.11815 0.637757 0.945832 0.797998C0.830954 0.958238 0.945832 1.22531 0.945832 1.22531C0.945832 1.22531 3.07108 5.81887 5.48353 8.16906C7.72366 10.4124 10.1935 10.2522 10.1935 10.2522Z" fill="#101111"></path></svg>
