<svg width="20" height="15" viewBox="0 0 22 16" fill="none" xmlns="http://www.w3.org/2000/svg">
  <path d="M20.6835 2.78872C20.5684 2.33021 20.3429 1.91208 20.0294 1.57617C19.7158 1.24026 19.3254 0.998359 18.897 0.87467C17.3203 0.420899 11 0.420898 11 0.420898C11 0.420898 4.67974 0.420898 3.10305 0.872256C2.67452 0.995544 2.28385 1.23731 1.97028 1.57328C1.6567 1.90925 1.43125 2.3276 1.31658 2.7863C0.894775 4.47588 0.894775 7.99985 0.894775 7.99985C0.894775 7.99985 0.894775 11.5238 1.31658 13.211C1.54891 14.1427 2.23462 14.8764 3.10305 15.125C4.67974 15.5788 11 15.5788 11 15.5788C11 15.5788 17.3203 15.5788 18.897 15.125C19.7677 14.8764 20.4512 14.1427 20.6835 13.211C21.1053 11.5238 21.1053 7.99985 21.1053 7.99985C21.1053 7.99985 21.1053 4.47588 20.6835 2.78872ZM8.99252 11.2342V4.76552L14.2256 7.97571L8.99252 11.2342Z" fill="#cd201f"></path>
</svg>
